<svg width="135" height="49" viewBox="0 0 135 49" fill="none" xmlns="http://www.w3.org/2000/svg">
<path d="M1.12 31.7586V17.3786H12.54C13.0867 17.3786 13.58 17.512 14.02 17.7786C14.4733 18.0453 14.8333 18.4053 15.1 18.8586C15.38 19.312 15.52 19.8053 15.52 20.3386V24.0586C15.52 24.592 15.38 25.0853 15.1 25.5386C14.8333 25.992 14.4733 26.352 14.02 26.6186C13.58 26.8853 13.0867 27.0186 12.54 27.0186L4.22 27.0386V31.7586H1.12ZM4.22 23.8986H12.38V20.4786H4.22V23.8986ZM28.1203 31.7586L23.9403 26.7786H28.0003L31.3203 30.6986V31.7586H28.1203ZM16.9403 31.7586V17.3786H28.3603C28.907 17.3786 29.4003 17.512 29.8403 17.7786C30.2936 18.0453 30.6536 18.4053 30.9203 18.8586C31.2003 19.312 31.3403 19.8053 31.3403 20.3386V24.0586C31.3403 24.592 31.2003 25.0853 30.9203 25.5386C30.6536 25.992 30.2936 26.352 29.8403 26.6186C29.4003 26.8853 28.907 27.0186 28.3603 27.0186L20.0403 27.0386V31.7586H16.9403ZM20.0403 23.8986H28.2003V20.4786H20.0403V23.8986ZM36.3642 31.7586C35.8309 31.7586 35.3376 31.6253 34.8842 31.3586C34.4309 31.092 34.0709 30.732 33.8042 30.2786C33.5376 29.8253 33.4042 29.332 33.4042 28.7986V20.3186C33.4042 19.772 33.5376 19.2786 33.8042 18.8386C34.0709 18.3853 34.4309 18.0253 34.8842 17.7586C35.3376 17.492 35.8309 17.3586 36.3642 17.3586H44.8442C45.3776 17.3586 45.8642 17.492 46.3042 17.7586C46.7576 18.0253 47.1176 18.3853 47.3842 18.8386C47.6642 19.2786 47.8042 19.772 47.8042 20.3186V28.7986C47.8042 29.332 47.6642 29.8253 47.3842 30.2786C47.1176 30.732 46.7576 31.092 46.3042 31.3586C45.8642 31.6253 45.3776 31.7586 44.8442 31.7586H36.3642ZM36.5042 28.6386H44.6642V20.4786H36.5042V28.6386ZM50.0667 31.7586V17.3586H60.9467C61.4801 17.3586 61.9667 17.492 62.4067 17.7586C62.8601 18.0253 63.2201 18.3853 63.4867 18.8386C63.7667 19.2786 63.9067 19.772 63.9067 20.3186V23.0186C63.9067 23.192 63.8934 23.3586 63.8667 23.5186C63.8534 23.6653 63.8201 23.8053 63.7667 23.9386C63.9667 24.192 64.1334 24.4853 64.2667 24.8186C64.4001 25.152 64.4667 25.4853 64.4667 25.8186V28.7986C64.4667 29.332 64.3267 29.8253 64.0467 30.2786C63.7801 30.732 63.4201 31.092 62.9667 31.3586C62.5267 31.6253 62.0334 31.7586 61.4867 31.7586H50.0667ZM53.1667 28.6386H61.3267V25.9986H53.1667V28.6386ZM53.1667 22.8786H60.7667V20.4786H53.1667V22.8786ZM66.6873 31.7586V17.3586H79.9873V20.4786H69.8273V22.9986H78.0073V26.1186H69.8273V28.6386H79.9873V31.7586H66.6873ZM93.1398 31.7586L88.9598 26.7786H93.0198L96.3398 30.6986V31.7586H93.1398ZM81.9598 31.7586V17.3786H93.3798C93.9265 17.3786 94.4198 17.512 94.8598 17.7786C95.3132 18.0453 95.6732 18.4053 95.9398 18.8586C96.2198 19.312 96.3598 19.8053 96.3598 20.3386V24.0586C96.3598 24.592 96.2198 25.0853 95.9398 25.5386C95.6732 25.992 95.3132 26.352 94.8598 26.6186C94.4198 26.8853 93.9265 27.0186 93.3798 27.0186L85.0598 27.0386V31.7586H81.9598ZM85.0598 23.8986H93.2198V20.4786H85.0598V23.8986ZM111.154 31.7586V30.6986L116.294 24.5586L111.154 18.4186V17.3586H114.374L118.374 22.0986L122.334 17.3586H125.554V18.4186L120.394 24.5586L125.554 30.6786V31.7586H122.334L118.334 27.0386L114.374 31.7586H111.154ZM131.205 31.7586V22.0186L130.545 22.8386H126.485L131.085 17.3586H134.265V31.7586H131.205Z" fill="black"/>
<path d="M1 0H135V7.5V15H1V0Z" fill="black"/>
<rect x="1" y="34" width="134" height="15" fill="black"/>
</svg>
